<svg width="800" height="600" xmlns="http://www.w3.org/2000/svg">
 <g>
  <title>Layer 1</title>
  <desc>Created with Fabric.js 5.3.0</desc>
  <g id="svg_10" transform="matrix(1 0 0 1 640 512)"/>
  <g id="svg_3" transform="matrix(1.92115 0 0 1.92115 649.283 701.346)">
   <g paint-order="stroke" id="svg_11">
    <g id="svg_4" transform="matrix(1 0 0 1 -5.68434e-14 0)">
     <path fill-rule=" nonzero" fill=" url(#SVGID_750658)" stroke-miterlimit="4" stroke-linejoin=" miter" stroke-dashoffset="0" stroke-dasharray=" none" stroke-width="0" stroke=" none" stroke-linecap=" butt" d="m-333.95327,-55.85934q-0.97,0 -1.69,-0.42q-0.73,-0.41 -1.12,-1.18q-0.4,-0.76 -0.4,-1.8l0,0q0,-1.13 0.48,-2.01q0.49,-0.88 1.37,-1.37q0.88,-0.49 2.01,-0.49l0,0q0.41,0 0.88,0.06q0.47,0.06 0.81,0.12q0.35,0.06 0.44,0.08l0,0l0.05,0.07q-0.02,0.07 -0.08,0.32q-0.05,0.25 -0.11,0.66q-0.06,0.41 -0.1,0.86l0,0l-0.51,0.04q0.01,-0.05 0.02,-0.21q0.01,-0.16 0.01,-0.38l0,0q0,-0.51 -0.39,-0.74q-0.39,-0.23 -1.27,-0.23l0,0q-1.26,0 -1.95,0.75q-0.7,0.76 -0.7,2.12l0,0q0,0.96 0.3,1.68q0.31,0.73 0.88,1.13q0.58,0.39 1.32,0.39l0,0q0.4,0 0.73,-0.09q0.33,-0.09 0.56,-0.2q0.22,-0.11 0.22,-0.13l0,0l0,-1.34q0,-0.37 -0.11,-0.48q-0.12,-0.11 -0.49,-0.11l0,0l-0.76,0l-0.02,-0.05l0.1,-0.55q0.13,0.02 0.56,0.03q0.42,0.02 0.83,0.02l0,0q0.3,0 0.58,-0.02q0.29,-0.03 0.37,-0.04l0,0l0.04,0.25q-0.2,0.16 -0.27,0.52q-0.07,0.36 -0.07,1.17l0,0q0,0.64 0.08,0.97l0,0l-0.07,0.1q0,0.01 -0.39,0.14q-0.39,0.14 -0.96,0.25q-0.56,0.11 -1.18,0.11l0,0zm11.68,0q-1.15,0 -1.78,-0.63q-0.62,-0.63 -0.62,-1.8l0,0l0,-3.64q0,-0.35 -0.09,-0.47q-0.08,-0.12 -0.32,-0.12l0,0q-0.11,0 -0.22,0.01q-0.11,0.01 -0.16,0.01l0,0l-0.02,-0.05l0.08,-0.48q0.13,0.01 0.5,0.02q0.37,0.01 0.74,0.01l0,0q0.3,0 0.67,-0.04q0.38,-0.03 0.49,-0.06l0,0l-0.05,0.5q-0.4,0.05 -0.54,0.18q-0.14,0.13 -0.16,0.45l0,0l-0.09,3.23q0,1.09 0.47,1.67q0.48,0.59 1.37,0.59l0,0q0.9,0 1.37,-0.48q0.48,-0.48 0.48,-1.38l0,0q-0.02,-0.88 -0.04,-2.01q-0.02,-1.13 -0.03,-1.58l0,0q-0.02,-0.38 -0.09,-0.49q-0.08,-0.1 -0.32,-0.1l0,0q-0.13,0 -0.27,0.01q-0.15,0.01 -0.2,0.01l0,0l-0.02,-0.05l0.07,-0.48q0.14,0.01 0.51,0.02q0.36,0.01 0.74,0.01l0,0q0.29,0 0.63,-0.04q0.34,-0.03 0.43,-0.06l0,0l-0.04,0.5q-0.33,0.04 -0.49,0.1q-0.16,0.06 -0.21,0.18q-0.06,0.12 -0.06,0.35l0,0l0,3.69q0,1.16 -0.71,1.79q-0.72,0.63 -2.02,0.63l0,0zm8.91,0l0.07,-0.5q0.52,-0.1 0.7,-0.3q0.18,-0.19 0.18,-0.65l0,0l0.01,-4.62q0,-0.35 -0.08,-0.47q-0.08,-0.12 -0.33,-0.12l0,0l-0.46,0.02l-0.02,-0.05l0.08,-0.48q0.17,0 0.27,0.01l0,0l1.04,0.02q0.49,0 1.26,-0.1l0,0l-0.04,0.5q-0.45,0.05 -0.61,0.18q-0.16,0.13 -0.18,0.45l0,0q-0.07,1.28 -0.11,2.69q-0.05,1.4 -0.05,2.06l0,0q0,0.45 0.1,0.6q0.1,0.15 0.38,0.15l0,0q0.19,0 0.59,-0.04l0,0l0.02,0.05l-0.1,0.5q-0.15,0 -0.24,-0.01l0,0q-0.77,-0.02 -1.2,-0.02l0,0q-0.54,0 -1.28,0.13l0,0zm11.25,0q-0.17,-0.02 -0.7,-0.08q-0.54,-0.05 -0.89,-0.05l0,0q-0.34,0 -0.74,0.05q-0.4,0.06 -0.52,0.08l0,0l0.06,-0.5q0.51,-0.1 0.69,-0.3q0.17,-0.19 0.17,-0.65l0,0l0.01,-4.62q0,-0.35 -0.08,-0.47q-0.08,-0.12 -0.33,-0.12l0,0q-0.11,0 -0.21,0.01q-0.11,0.01 -0.16,0.01l0,0l-0.02,-0.05l0.08,-0.48q0.12,0.01 0.46,0.02q0.34,0.01 0.69,0.01l0,0q0.47,0 0.98,-0.01q0.51,-0.02 0.69,-0.03l0,0q1.06,0 1.88,0.41q0.83,0.41 1.29,1.16q0.45,0.75 0.45,1.72l0,0q0,1.08 -0.5,1.97q-0.51,0.89 -1.38,1.41q-0.87,0.51 -1.92,0.51l0,0zm-0.58,-6.64q-0.23,0 -0.3,0.05q-0.08,0.05 -0.09,0.19l0,0q-0.17,4.24 -0.17,4.83l0,0q0,0.42 0.12,0.63q0.11,0.21 0.41,0.29q0.29,0.09 0.86,0.09l0,0q1.19,0 1.87,-0.82q0.68,-0.82 0.68,-2.25l0,0q0,-1.45 -0.87,-2.23q-0.88,-0.78 -2.51,-0.78l0,0zm9.84,6.64l0.06,-0.5q0.52,-0.1 0.7,-0.3q0.18,-0.19 0.18,-0.65l0,0l0.01,-4.62q0,-0.35 -0.08,-0.47q-0.08,-0.12 -0.32,-0.12l0,0l-0.46,0.02l-0.03,-0.05l0.08,-0.48q0.18,0 0.28,0.01l0,0l1.03,0.02q0.5,0 1.26,-0.1l0,0l-0.04,0.5q-0.45,0.05 -0.61,0.18q-0.16,0.13 -0.18,0.45l0,0q-0.07,1.28 -0.11,2.69q-0.05,1.4 -0.05,2.06l0,0q0,0.45 0.1,0.6q0.1,0.15 0.39,0.15l0,0q0.19,0 0.58,-0.04l0,0l0.02,0.05l-0.1,0.5q-0.15,0 -0.24,-0.01l0,0q-0.77,-0.02 -1.2,-0.02l0,0q-0.54,0 -1.27,0.13l0,0zm14.02,0.31q-0.95,-1.48 -1.86,-2.83q-0.91,-1.35 -1.49,-2.18q-0.59,-0.83 -0.74,-1.05l0,0l-0.05,0l-0.06,4.7q0,0.24 0.08,0.34q0.07,0.1 0.26,0.1l0,0l0.56,-0.01l0.02,0.04l-0.09,0.49q-0.13,-0.01 -0.5,-0.02q-0.37,-0.02 -0.67,-0.02l0,0q-0.28,0 -0.6,0.04q-0.32,0.04 -0.42,0.05l0,0l0.05,-0.51q0.34,-0.04 0.51,-0.2q0.16,-0.16 0.17,-0.49l0,0l0.15,-4.81q0,-0.34 -0.21,-0.48q-0.2,-0.14 -0.75,-0.2l0,0l-0.03,-0.05l0.08,-0.41q0.1,0.01 0.43,0.03q0.33,0.02 0.52,0.02l0,0q0.23,0 0.45,-0.01q0.22,-0.02 0.29,-0.03l0,0q0.81,1.26 1.63,2.47q0.82,1.21 1.37,2q0.55,0.78 0.69,0.99l0,0l0.06,0l0,-4.46q0,-0.47 -0.36,-0.47l0,0l-0.42,0.01l-0.02,-0.05l0.09,-0.49q0.11,0.01 0.42,0.03q0.31,0.01 0.63,0.01l0,0q0.29,0 0.63,-0.04q0.35,-0.03 0.46,-0.04l0,0l-0.06,0.5q-0.38,0.06 -0.56,0.22q-0.17,0.16 -0.18,0.47l0,0l-0.16,6.19l-0.32,0.15zm9.69,-0.31q-0.96,0 -1.69,-0.42q-0.73,-0.41 -1.12,-1.18q-0.4,-0.76 -0.4,-1.8l0,0q0,-1.13 0.49,-2.01q0.48,-0.88 1.36,-1.37q0.88,-0.49 2.01,-0.49l0,0q0.41,0 0.88,0.06q0.48,0.06 0.82,0.12q0.34,0.06 0.44,0.08l0,0l0.04,0.07q-0.02,0.07 -0.08,0.32q-0.05,0.25 -0.11,0.66q-0.06,0.41 -0.1,0.86l0,0l-0.51,0.04q0.01,-0.05 0.02,-0.21q0.01,-0.16 0.01,-0.38l0,0q0,-0.51 -0.39,-0.74q-0.39,-0.23 -1.27,-0.23l0,0q-1.25,0 -1.95,0.75q-0.7,0.76 -0.7,2.12l0,0q0,0.96 0.31,1.68q0.31,0.73 0.88,1.13q0.57,0.39 1.32,0.39l0,0q0.39,0 0.72,-0.09q0.33,-0.09 0.56,-0.2q0.22,-0.11 0.22,-0.13l0,0l0,-1.34q0,-0.37 -0.11,-0.48q-0.12,-0.11 -0.49,-0.11l0,0l-0.76,0l-0.02,-0.05l0.1,-0.55q0.13,0.02 0.56,0.03q0.43,0.02 0.83,0.02l0,0q0.3,0 0.59,-0.02q0.28,-0.03 0.36,-0.04l0,0l0.04,0.25q-0.19,0.16 -0.27,0.52q-0.07,0.36 -0.07,1.17l0,0q0,0.64 0.08,0.97l0,0l-0.07,0.1q0,0.01 -0.39,0.14q-0.39,0.14 -0.95,0.25q-0.57,0.11 -1.19,0.11l0,0zm20.94,0.31q-0.96,-1.48 -1.87,-2.83q-0.9,-1.35 -1.49,-2.18q-0.58,-0.83 -0.73,-1.05l0,0l-0.06,0l-0.05,4.7q0,0.24 0.07,0.34q0.08,0.1 0.27,0.1l0,0l0.56,-0.01l0.02,0.04l-0.1,0.49q-0.12,-0.01 -0.49,-0.02q-0.38,-0.02 -0.68,-0.02l0,0q-0.27,0 -0.6,0.04q-0.32,0.04 -0.42,0.05l0,0l0.06,-0.51q0.34,-0.04 0.5,-0.2q0.17,-0.16 0.18,-0.49l0,0l0.14,-4.81q0,-0.34 -0.2,-0.48q-0.21,-0.14 -0.76,-0.2l0,0l-0.03,-0.05l0.09,-0.41q0.1,0.01 0.43,0.03q0.33,0.02 0.52,0.02l0,0q0.23,0 0.45,-0.01q0.22,-0.02 0.28,-0.03l0,0q0.82,1.26 1.64,2.47q0.82,1.21 1.37,2q0.55,0.78 0.69,0.99l0,0l0.05,0l0,-4.46q0,-0.47 -0.36,-0.47l0,0l-0.42,0.01l-0.02,-0.05l0.1,-0.49q0.11,0.01 0.42,0.03q0.31,0.01 0.62,0.01l0,0q0.29,0 0.64,-0.04q0.34,-0.03 0.45,-0.04l0,0l-0.05,0.5q-0.39,0.06 -0.56,0.22q-0.18,0.16 -0.19,0.47l0,0l-0.15,6.19l-0.32,0.15zm11.86,-2.33l0.03,0.05q-0.19,0.89 -0.3,1.85l0,0l-0.05,0.07q-2.31,-0.08 -3.34,-0.08l0,0q-0.81,0 -1.53,0.11l0,0l0.07,-0.51q0.5,-0.06 0.68,-0.25q0.18,-0.2 0.18,-0.67l0,0l0.01,-4.62q0,-0.35 -0.08,-0.47q-0.09,-0.12 -0.33,-0.12l0,0l-0.37,0.02l-0.02,-0.05l0.07,-0.48q1.13,0.03 1.53,0.03l0,0q1.31,0 2.04,-0.02q0.72,-0.03 1.26,-0.11l0,0l0.04,0.07q-0.2,0.87 -0.26,1.82l0,0l-0.53,0.05l0.03,-0.48q0,-0.38 -0.1,-0.53q-0.1,-0.15 -0.43,-0.2q-0.33,-0.05 -1.16,-0.05l0,0q-0.38,0 -0.52,0.03q-0.15,0.02 -0.19,0.1q-0.05,0.08 -0.06,0.3l0,0l-0.08,2.14l1.13,0.01q0.43,0 1.34,-0.12l0,0l0.04,0.05l-0.15,0.65q-1.22,-0.03 -1.54,-0.03l0,0q-0.36,0 -0.85,0.07l0,0l-0.04,2.1q0,0.32 0.05,0.45q0.06,0.13 0.23,0.17q0.17,0.05 0.59,0.05l0,0q0.92,0 1.31,-0.09q0.39,-0.09 0.56,-0.35q0.16,-0.27 0.25,-0.91l0,0l0.49,-0.05zm7.84,2.08q-0.16,-0.55 -0.71,-2.42q-0.56,-1.87 -1.13,-3.67l0,0q-0.1,-0.31 -0.34,-0.46q-0.24,-0.15 -0.65,-0.16l0,0l-0.01,-0.05l0.07,-0.47q0.14,0 0.51,0.02q0.38,0.01 0.73,0.01l0,0q0.48,0 0.97,-0.05q0.48,-0.05 0.62,-0.07l0,0l0.04,0.08l-0.05,0.43q-0.56,0.04 -0.75,0.13q-0.19,0.09 -0.19,0.32l0,0q0,0.19 0.3,1.32q0.3,1.14 0.63,2.29q0.32,1.14 0.42,1.49l0,0l0.07,0l1.55,-4.22l-0.2,-0.61q-0.11,-0.31 -0.34,-0.46q-0.23,-0.14 -0.65,-0.16l0,0l-0.02,-0.05l0.07,-0.47q0.15,0 0.52,0.02q0.38,0.01 0.73,0.01l0,0q0.42,0 0.93,-0.05q0.51,-0.05 0.66,-0.07l0,0l0.04,0.08l-0.05,0.43q-0.57,0.04 -0.76,0.13q-0.2,0.09 -0.2,0.33l0,0q0,0.23 0.58,2.29q0.57,2.06 0.79,2.8l0,0l0.06,0q0.03,-0.06 0.05,-0.13q0.03,-0.08 0.06,-0.18l0,0q1.68,-4.48 1.68,-4.8l0,0q0,-0.21 -0.18,-0.3q-0.18,-0.09 -0.57,-0.09l0,0l-0.55,0l-0.02,-0.04l0.07,-0.47q0.15,0.01 0.62,0.04q0.47,0.03 0.91,0.03l0,0q0.4,0 0.73,-0.01q0.33,-0.01 0.44,-0.02l0,0l-0.08,0.52q-0.33,0.02 -0.46,0.11q-0.13,0.1 -0.24,0.42l0,0l-2.31,5.94l-0.68,0.24q-0.11,-0.39 -0.52,-1.77q-0.4,-1.39 -0.86,-2.9l0,0l-0.07,0l-1.56,4.43l-0.7,0.24zm15.29,-0.06q-0.99,0 -1.74,-0.42q-0.75,-0.41 -1.15,-1.18q-0.4,-0.76 -0.4,-1.8l0,0q0,-1.1 0.49,-1.98q0.5,-0.89 1.37,-1.39q0.88,-0.5 1.98,-0.5l0,0q0.41,0 0.83,0.06q0.42,0.06 0.71,0.12q0.3,0.06 0.37,0.08l0,0l0.05,0.07q-0.03,0.07 -0.08,0.32q-0.04,0.25 -0.11,0.66q-0.06,0.41 -0.09,0.86l0,0l-0.53,0.04q0.01,-0.05 0.03,-0.2q0.01,-0.15 0.01,-0.34l0,0q0,-1.02 -1.62,-1.02l0,0q-0.73,0 -1.28,0.35q-0.55,0.35 -0.84,1q-0.3,0.64 -0.3,1.51l0,0q0,0.96 0.31,1.68q0.32,0.73 0.89,1.13q0.57,0.4 1.32,0.4l0,0q0.75,0 1.2,-0.42q0.46,-0.42 0.67,-1.32l0,0l0.53,-0.04q-0.04,0.17 -0.15,0.73q-0.11,0.57 -0.15,1.06l0,0l-0.07,0.1q0,0.01 -0.33,0.13q-0.34,0.11 -0.84,0.21q-0.5,0.1 -1.08,0.1l0,0zm10.91,0q-0.89,0 -1.58,-0.43q-0.7,-0.43 -1.08,-1.2q-0.39,-0.78 -0.39,-1.77l0,0q0,-1.07 0.48,-1.96q0.48,-0.89 1.31,-1.4q0.83,-0.51 1.83,-0.51l0,0q0.92,0 1.62,0.43q0.7,0.43 1.1,1.2q0.4,0.77 0.4,1.76l0,0q0,1.08 -0.49,1.97q-0.49,0.89 -1.34,1.4q-0.84,0.51 -1.86,0.51l0,0zm0.34,-0.56q0.69,0 1.23,-0.36q0.54,-0.37 0.84,-1.01q0.3,-0.65 0.3,-1.49l0,0q0,-0.93 -0.32,-1.65q-0.32,-0.73 -0.89,-1.13q-0.56,-0.41 -1.3,-0.41l0,0q-0.67,0 -1.2,0.36q-0.52,0.37 -0.81,1.02q-0.29,0.64 -0.29,1.48l0,0q0,0.94 0.31,1.66q0.31,0.72 0.86,1.12q0.56,0.41 1.27,0.41l0,0zm12.55,0.64l-2.11,-5.93l-0.05,0q-0.07,0.73 -0.24,2.72q-0.16,2 -0.16,2.18l0,0q0,0.34 0.34,0.34l0,0l0.45,-0.01l0.02,0.04l-0.1,0.49q-0.12,-0.01 -0.43,-0.02q-0.31,-0.02 -0.63,-0.02l0,0q-0.28,0 -0.57,0.04q-0.29,0.04 -0.38,0.05l0,0l0.06,-0.51q0.35,-0.04 0.5,-0.22q0.16,-0.18 0.2,-0.62l0,0q0.11,-1.04 0.29,-2.79q0.18,-1.76 0.18,-1.97l0,0q0,-0.28 -0.22,-0.43q-0.23,-0.14 -0.72,-0.17l0,0l-0.04,-0.06l0.09,-0.38q0.15,0.01 0.56,0.03q0.42,0.02 0.64,0.02l0,0q0.2,0 0.44,-0.01q0.23,-0.02 0.31,-0.03l0,0q0.44,1.42 0.85,2.63q0.41,1.22 0.68,1.93q0.26,0.72 0.33,0.9l0,0l0.05,0q0.16,-0.41 0.71,-1.94q0.55,-1.53 1.2,-3.5l0,0q0,-0.01 0.29,0.01l0,0l0.43,0.01q0.21,0 0.63,-0.02q0.42,-0.03 0.56,-0.04l0,0l0.02,0.04l-0.05,0.41q-0.48,0.05 -0.67,0.19q-0.2,0.14 -0.2,0.41l0,0q0,0.25 0.1,1.8q0.1,1.56 0.18,2.69l0,0q0.06,0.45 0.11,0.67q0.06,0.21 0.16,0.29q0.1,0.09 0.27,0.09l0,0q0.1,0 0.19,-0.01q0.09,-0.02 0.12,-0.02l0,0l0.02,0.05l-0.1,0.49q-0.11,-0.01 -0.41,-0.02q-0.3,-0.01 -0.63,-0.01l0,0q-0.3,0 -0.67,0.04q-0.36,0.04 -0.47,0.05l0,0l0.04,-0.51q0.34,-0.04 0.49,-0.17q0.16,-0.14 0.16,-0.38l0,0q0,-0.23 -0.16,-2.14q-0.16,-1.92 -0.22,-2.61l0,0l-0.05,0l-2.12,5.85l-0.27,0.08zm15.17,-2.1l0.03,0.05q-0.18,0.89 -0.29,1.85l0,0l-0.06,0.07q-2.31,-0.08 -3.33,-0.08l0,0q-0.81,0 -1.53,0.11l0,0l0.07,-0.51q0.49,-0.06 0.67,-0.25q0.18,-0.2 0.18,-0.67l0,0l0.02,-4.62q0,-0.35 -0.09,-0.47q-0.08,-0.12 -0.32,-0.12l0,0l-0.38,0.02l-0.02,-0.05l0.08,-0.48q1.12,0.03 1.53,0.03l0,0q1.31,0 2.03,-0.02q0.73,-0.03 1.27,-0.11l0,0l0.03,0.07q-0.2,0.87 -0.25,1.82l0,0l-0.53,0.05l0.02,-0.48q0,-0.38 -0.1,-0.53q-0.1,-0.15 -0.43,-0.2q-0.33,-0.05 -1.15,-0.05l0,0q-0.39,0 -0.53,0.03q-0.14,0.02 -0.19,0.1q-0.04,0.08 -0.05,0.3l0,0l-0.09,2.14l1.13,0.01q0.43,0 1.35,-0.12l0,0l0.04,0.05l-0.15,0.65q-1.22,-0.03 -1.54,-0.03l0,0q-0.37,0 -0.85,0.07l0,0l-0.04,2.1q0,0.32 0.05,0.45q0.06,0.13 0.23,0.17q0.17,0.05 0.58,0.05l0,0q0.93,0 1.32,-0.09q0.39,-0.09 0.55,-0.35q0.17,-0.27 0.26,-0.91l0,0l0.48,-0.05zm10.72,2.07q-0.28,0 -0.59,-0.28q-0.32,-0.28 -0.58,-0.77l0,0l-1.18,-2.13l-0.91,0l-0.03,1.64q0,0.41 0.05,0.6q0.06,0.18 0.21,0.24q0.15,0.06 0.53,0.06l0,0l0.02,0.04l-0.1,0.46q-0.13,-0.01 -0.53,-0.02q-0.39,-0.01 -0.82,-0.01l0,0q-0.39,0 -0.68,0.01q-0.3,0.01 -0.4,0.02l0,0l0.1,-0.49q0.35,-0.04 0.53,-0.12q0.17,-0.08 0.24,-0.25q0.07,-0.17 0.07,-0.5l0,0l0.01,-4.62q0,-0.35 -0.09,-0.47q-0.08,-0.12 -0.32,-0.12l0,0q-0.11,0 -0.22,0.01q-0.11,0.01 -0.15,0.01l0,0l-0.03,-0.05l0.08,-0.48q0.13,0.01 0.5,0.02q0.36,0.01 0.72,0.01l0,0q0.38,0 0.79,-0.01q0.41,-0.02 0.56,-0.03l0,0q1.03,0 1.62,0.46q0.6,0.46 0.6,1.27l0,0q0,0.66 -0.43,1.21q-0.42,0.55 -1.19,0.9l0,0l1.21,1.91q0.32,0.53 0.62,0.73q0.3,0.21 0.74,0.21l0,0l0.05,0.04l-0.07,0.37l-0.93,0.13zm-2.11,-3.69q0,0.03 0.33,-0.14q0.33,-0.18 0.6,-0.54q0.26,-0.36 0.26,-0.94l0,0q0,-1.45 -2.01,-1.45l0,0q-0.11,0 -0.15,0.05q-0.04,0.05 -0.05,0.21l0,0q-0.1,1.68 -0.11,2.7l0,0l1.13,0.11zm10,3.64q-0.46,0 -0.84,-0.08q-0.39,-0.08 -0.64,-0.18q-0.24,-0.1 -0.24,-0.11l0,0l-0.06,-0.11q0.01,-0.07 0.05,-0.33q0.03,-0.27 0.06,-0.69q0.02,-0.42 0.02,-0.9l0,0l0.5,-0.05q0,0.82 0.11,1.22q0.11,0.4 0.41,0.54q0.29,0.15 0.91,0.15l0,0q0.69,0 1.11,-0.32q0.42,-0.33 0.42,-0.89l0,0q0,-0.33 -0.23,-0.59q-0.22,-0.26 -0.53,-0.45q-0.31,-0.19 -0.91,-0.51l0,0q-0.58,-0.29 -0.94,-0.54q-0.36,-0.25 -0.61,-0.59q-0.25,-0.34 -0.25,-0.79l0,0q0,-0.58 0.34,-1.04q0.33,-0.47 0.91,-0.74q0.58,-0.27 1.28,-0.27l0,0q0.44,0 0.82,0.06q0.37,0.06 0.59,0.13q0.22,0.06 0.28,0.09l0,0l0.03,0.06q-0.01,0.07 -0.06,0.31q-0.04,0.24 -0.1,0.67q-0.05,0.43 -0.08,0.88l0,0l-0.43,0.05l-0.07,-0.06q0.01,-0.04 0.02,-0.2q0.01,-0.16 0.01,-0.37l0,0q0,-0.58 -0.28,-0.8q-0.29,-0.22 -1.02,-0.22l0,0q-0.61,0 -1,0.3q-0.39,0.3 -0.39,0.75l0,0q0,0.44 0.38,0.77q0.38,0.32 1.12,0.71l0,0q0.71,0.36 1.08,0.59q0.38,0.24 0.66,0.59q0.29,0.36 0.29,0.82l0,0q0,0.61 -0.35,1.1q-0.34,0.49 -0.96,0.77q-0.61,0.27 -1.41,0.27l0,0zm15.78,-0.09l0.09,-0.47q0.55,-0.04 0.75,-0.14q0.21,-0.09 0.28,-0.34q0.07,-0.25 0.07,-0.87l0,0l0,-4.8q-0.94,0.04 -1.28,0.11q-0.33,0.07 -0.45,0.32q-0.12,0.24 -0.22,0.96l0,0l-0.52,0.04q0.13,-1.04 0.17,-1.9l0,0l0.1,-0.09l0.91,0.12l3.41,0l0.93,-0.12l0.1,0.09q0.04,0.9 0.17,1.86l0,0l-0.52,0.04q-0.12,-0.72 -0.24,-0.98q-0.12,-0.25 -0.43,-0.33q-0.31,-0.07 -1.19,-0.12l0,0q-0.06,0.66 -0.12,2.33q-0.05,1.68 -0.05,3.02l0,0q0,0.41 0.14,0.58q0.14,0.17 0.48,0.17l0,0q0.33,0 0.61,-0.04l0,0l0.03,0.05l-0.1,0.5l-0.36,-0.01l-1.26,-0.02q-0.6,0 -1.5,0.04l0,0zm12.38,0.09q-0.89,0 -1.58,-0.43q-0.69,-0.43 -1.08,-1.2q-0.38,-0.78 -0.38,-1.77l0,0q0,-1.07 0.47,-1.96q0.48,-0.89 1.31,-1.4q0.83,-0.51 1.84,-0.51l0,0q0.91,0 1.61,0.43q0.71,0.43 1.1,1.2q0.4,0.77 0.4,1.76l0,0q0,1.08 -0.49,1.97q-0.49,0.89 -1.33,1.4q-0.84,0.51 -1.87,0.51l0,0zm0.34,-0.56q0.7,0 1.24,-0.36q0.54,-0.37 0.83,-1.01q0.3,-0.65 0.3,-1.49l0,0q0,-0.93 -0.32,-1.65q-0.32,-0.73 -0.89,-1.13q-0.56,-0.41 -1.3,-0.41l0,0q-0.67,0 -1.19,0.36q-0.52,0.37 -0.82,1.02q-0.29,0.64 -0.29,1.48l0,0q0,0.94 0.31,1.66q0.31,0.72 0.86,1.12q0.56,0.41 1.27,0.41l0,0zm20.4,0.61q-0.28,0 -0.59,-0.28q-0.31,-0.28 -0.58,-0.77l0,0l-1.17,-2.13l-0.92,0l-0.03,1.64q0,0.41 0.05,0.6q0.06,0.18 0.21,0.24q0.16,0.06 0.53,0.06l0,0l0.02,0.04l-0.1,0.46q-0.13,-0.01 -0.52,-0.02q-0.4,-0.01 -0.83,-0.01l0,0q-0.38,0 -0.68,0.01q-0.3,0.01 -0.4,0.02l0,0l0.1,-0.49q0.35,-0.04 0.53,-0.12q0.18,-0.08 0.24,-0.25q0.07,-0.17 0.07,-0.5l0,0l0.01,-4.62q0,-0.35 -0.08,-0.47q-0.09,-0.12 -0.33,-0.12l0,0q-0.11,0 -0.22,0.01q-0.11,0.01 -0.15,0.01l0,0l-0.02,-0.05l0.07,-0.48q0.14,0.01 0.5,0.02q0.36,0.01 0.72,0.01l0,0q0.38,0 0.79,-0.01q0.41,-0.02 0.57,-0.03l0,0q1.02,0 1.61,0.46q0.6,0.46 0.6,1.27l0,0q0,0.66 -0.43,1.21q-0.42,0.55 -1.19,0.9l0,0l1.21,1.91q0.32,0.53 0.62,0.73q0.31,0.21 0.75,0.21l0,0l0.04,0.04l-0.07,0.37l-0.93,0.13zm-2.1,-3.69q0,0.03 0.33,-0.14q0.33,-0.18 0.59,-0.54q0.27,-0.36 0.27,-0.94l0,0q0,-1.45 -2.02,-1.45l0,0q-0.11,0 -0.15,0.05q-0.03,0.05 -0.05,0.21l0,0q-0.09,1.68 -0.11,2.7l0,0l1.14,0.11zm13.41,1.62l0.03,0.05q-0.19,0.89 -0.3,1.85l0,0l-0.05,0.07q-2.31,-0.08 -3.34,-0.08l0,0q-0.81,0 -1.52,0.11l0,0l0.06,-0.51q0.5,-0.06 0.68,-0.25q0.18,-0.2 0.18,-0.67l0,0l0.01,-4.62q0,-0.35 -0.08,-0.47q-0.08,-0.12 -0.33,-0.12l0,0l-0.37,0.02l-0.02,-0.05l0.07,-0.48q1.13,0.03 1.53,0.03l0,0q1.31,0 2.04,-0.02q0.72,-0.03 1.26,-0.11l0,0l0.04,0.07q-0.2,0.87 -0.26,1.82l0,0l-0.52,0.05l0.02,-0.48q0,-0.38 -0.1,-0.53q-0.1,-0.15 -0.43,-0.2q-0.33,-0.05 -1.16,-0.05l0,0q-0.38,0 -0.52,0.03q-0.15,0.02 -0.19,0.1q-0.04,0.08 -0.06,0.3l0,0l-0.08,2.14l1.13,0.01q0.43,0 1.34,-0.12l0,0l0.05,0.05l-0.16,0.65q-1.22,-0.03 -1.54,-0.03l0,0q-0.36,0 -0.85,0.07l0,0l-0.04,2.1q0,0.32 0.06,0.45q0.05,0.13 0.22,0.17q0.17,0.05 0.59,0.05l0,0q0.92,0 1.31,-0.09q0.39,-0.09 0.56,-0.35q0.16,-0.27 0.25,-0.91l0,0l0.49,-0.05zm8.73,2l-0.03,-0.08l0.04,-0.43q0.56,-0.04 0.77,-0.13q0.21,-0.09 0.21,-0.28l0,0q0,-0.22 -0.1,-0.53l0,0l-0.36,-1.2q-0.27,-0.01 -1.15,-0.01l0,0q-0.52,0 -1.19,0.09l0,0l-0.41,1.14q-0.1,0.3 -0.1,0.43l0,0q0,0.24 0.15,0.35q0.16,0.1 0.51,0.1l0,0l0.63,0l0.02,0.04l-0.07,0.48q-0.13,-0.01 -0.6,-0.05q-0.48,-0.03 -0.93,-0.03l0,0q-0.4,0 -0.75,0.01q-0.35,0.01 -0.46,0.02l0,0l0.09,-0.51q0.31,-0.04 0.5,-0.22q0.18,-0.18 0.36,-0.63l0,0l2.14,-5.62l0.7,-0.19l0.09,0q0.06,0.26 0.33,1.22q0.27,0.96 0.66,2.27q0.39,1.31 0.75,2.41l0,0q0.14,0.4 0.36,0.57q0.22,0.16 0.7,0.21l0,0l0.02,0.04l-0.07,0.45q-0.14,0 -0.48,-0.01q-0.35,-0.02 -0.69,-0.02l0,0q-0.53,0 -1.02,0.04q-0.49,0.05 -0.62,0.07l0,0zm-1.62,-3.11l0.97,0q0.4,0 1.02,-0.06l0,0l-0.86,-2.88l-0.08,0l-1.05,2.94zm9.54,3.11l0.07,-0.51q0.43,-0.06 0.58,-0.25q0.16,-0.2 0.16,-0.67l0,0l0.02,-4.62q0,-0.35 -0.09,-0.47q-0.08,-0.12 -0.32,-0.12l0,0q-0.11,0 -0.22,0.01q-0.11,0.01 -0.16,0.01l0,0l-0.02,-0.05l0.08,-0.48q0.13,0.01 0.49,0.02q0.37,0.01 0.74,0.01l0,0q0.3,0 0.68,-0.04q0.38,-0.03 0.5,-0.06l0,0l-0.05,0.5q-0.36,0.04 -0.5,0.14q-0.13,0.1 -0.16,0.23q-0.03,0.14 -0.06,0.65l0,0q-0.07,0.94 -0.1,2.14q-0.03,1.2 -0.03,2.11l0,0q0,0.39 0.06,0.56q0.07,0.18 0.25,0.23q0.18,0.06 0.62,0.06l0,0q0.67,0 0.99,-0.11q0.31,-0.11 0.47,-0.43q0.16,-0.32 0.29,-1.03l0,0l0.48,-0.05l0.04,0.05q-0.04,0.18 -0.14,0.8q-0.1,0.61 -0.18,1.29l0,0l-0.06,0.07q-0.32,-0.02 -1.31,-0.06q-1,-0.04 -1.65,-0.04l0,0q-0.51,0 -0.94,0.04q-0.42,0.05 -0.53,0.07l0,0zm19.29,0.02q-0.89,0 -1.58,-0.43q-0.69,-0.43 -1.08,-1.2q-0.38,-0.78 -0.38,-1.77l0,0q0,-1.07 0.48,-1.96q0.47,-0.89 1.3,-1.4q0.84,-0.51 1.84,-0.51l0,0q0.91,0 1.61,0.43q0.71,0.43 1.1,1.2q0.4,0.77 0.4,1.76l0,0q0,1.08 -0.49,1.97q-0.49,0.89 -1.33,1.4q-0.84,0.51 -1.87,0.51l0,0zm0.35,-0.56q0.69,0 1.23,-0.36q0.54,-0.37 0.83,-1.01q0.3,-0.65 0.3,-1.49l0,0q0,-0.93 -0.32,-1.65q-0.32,-0.73 -0.88,-1.13q-0.57,-0.41 -1.31,-0.41l0,0q-0.67,0 -1.19,0.36q-0.52,0.37 -0.82,1.02q-0.29,0.64 -0.29,1.48l0,0q0,0.94 0.31,1.66q0.31,0.72 0.86,1.12q0.56,0.41 1.28,0.41l0,0zm8.87,0.52l0.08,-0.51q0.48,-0.09 0.64,-0.26q0.15,-0.17 0.15,-0.64l0,0l0.01,-4.62q0,-0.35 -0.08,-0.47q-0.08,-0.12 -0.32,-0.12l0,0q-0.11,0 -0.22,0.01q-0.11,0.01 -0.16,0.01l0,0l-0.02,-0.05l0.08,-0.48q0.13,0.01 0.49,0.02q0.36,0.01 0.73,0.01l0,0q0.34,0 0.77,-0.01q0.44,-0.02 0.61,-0.03l0,0q1.15,0 1.75,0.51q0.61,0.5 0.61,1.45l0,0q0,0.61 -0.36,1.17q-0.36,0.55 -0.94,0.9q-0.58,0.34 -1.22,0.34l0,0l-0.93,0l-0.02,1.07q0,0.53 0.04,0.76q0.03,0.22 0.12,0.29q0.1,0.08 0.33,0.08l0,0q0.18,0 0.35,-0.01q0.17,-0.02 0.24,-0.03l0,0l0.02,0.05l-0.1,0.5q-0.11,-0.01 -0.4,-0.02q-0.29,-0.01 -0.61,-0.01l0,0q-0.44,0 -1.03,0.03q-0.59,0.04 -0.61,0.06l0,0zm2.86,-3.26q0.66,-0.11 1,-0.54q0.33,-0.43 0.33,-1.17l0,0q0,-0.85 -0.5,-1.24q-0.5,-0.39 -1.56,-0.39l0,0q-0.2,0 -0.25,0.02q-0.04,0.02 -0.05,0.13l0,0q-0.1,1.4 -0.13,3.03l0,0l1.16,0.16zm7.6,3.26l0.08,-0.51q0.48,-0.09 0.64,-0.26q0.15,-0.17 0.15,-0.64l0,0l0.01,-4.62q0,-0.35 -0.08,-0.47q-0.08,-0.12 -0.32,-0.12l0,0q-0.11,0 -0.22,0.01q-0.11,0.01 -0.16,0.01l0,0l-0.02,-0.05l0.08,-0.48q0.13,0.01 0.49,0.02q0.36,0.01 0.73,0.01l0,0q0.34,0 0.77,-0.01q0.44,-0.02 0.61,-0.03l0,0q1.15,0 1.75,0.51q0.61,0.5 0.61,1.45l0,0q0,0.61 -0.36,1.17q-0.36,0.55 -0.94,0.9q-0.58,0.34 -1.22,0.34l0,0l-0.92,0l-0.03,1.07q0,0.53 0.04,0.76q0.03,0.22 0.12,0.29q0.1,0.08 0.33,0.08l0,0q0.18,0 0.35,-0.01q0.18,-0.02 0.24,-0.03l0,0l0.02,0.05l-0.1,0.5q-0.11,-0.01 -0.4,-0.02q-0.29,-0.01 -0.61,-0.01l0,0q-0.44,0 -1.03,0.03q-0.59,0.04 -0.61,0.06l0,0zm2.86,-3.26q0.66,-0.11 1,-0.54q0.33,-0.43 0.33,-1.17l0,0q0,-0.85 -0.5,-1.24q-0.5,-0.39 -1.56,-0.39l0,0q-0.2,0 -0.25,0.02q-0.04,0.02 -0.05,0.13l0,0q-0.1,1.4 -0.13,3.03l0,0l1.16,0.16zm10.4,3.3q-0.89,0 -1.59,-0.43q-0.69,-0.43 -1.07,-1.2q-0.39,-0.78 -0.39,-1.77l0,0q0,-1.07 0.48,-1.96q0.48,-0.89 1.31,-1.4q0.83,-0.51 1.83,-0.51l0,0q0.91,0 1.62,0.43q0.7,0.43 1.1,1.2q0.39,0.77 0.39,1.76l0,0q0,1.08 -0.49,1.97q-0.49,0.89 -1.33,1.4q-0.84,0.51 -1.86,0.51l0,0zm0.34,-0.56q0.69,0 1.23,-0.36q0.54,-0.37 0.84,-1.01q0.29,-0.65 0.29,-1.49l0,0q0,-0.93 -0.32,-1.65q-0.31,-0.73 -0.88,-1.13q-0.57,-0.41 -1.3,-0.41l0,0q-0.68,0 -1.2,0.36q-0.52,0.37 -0.81,1.02q-0.29,0.64 -0.29,1.48l0,0q0,0.94 0.3,1.66q0.31,0.72 0.87,1.12q0.55,0.41 1.27,0.41l0,0zm13.81,0.61q-0.27,0 -0.58,-0.28q-0.32,-0.28 -0.58,-0.77l0,0l-1.18,-2.13l-0.91,0l-0.03,1.64q0,0.41 0.05,0.6q0.06,0.18 0.21,0.24q0.15,0.06 0.53,0.06l0,0l0.02,0.04l-0.1,0.46q-0.13,-0.01 -0.53,-0.02q-0.39,-0.01 -0.82,-0.01l0,0q-0.39,0 -0.68,0.01q-0.3,0.01 -0.4,0.02l0,0l0.1,-0.49q0.35,-0.04 0.53,-0.12q0.17,-0.08 0.24,-0.25q0.06,-0.17 0.06,-0.5l0,0l0.02,-4.62q0,-0.35 -0.09,-0.47q-0.08,-0.12 -0.32,-0.12l0,0q-0.11,0 -0.22,0.01q-0.11,0.01 -0.16,0.01l0,0l-0.02,-0.05l0.08,-0.48q0.13,0.01 0.49,0.02q0.37,0.01 0.73,0.01l0,0q0.37,0 0.79,-0.01q0.41,-0.02 0.56,-0.03l0,0q1.03,0 1.62,0.46q0.59,0.46 0.59,1.27l0,0q0,0.66 -0.42,1.21q-0.42,0.55 -1.19,0.9l0,0l1.21,1.91q0.32,0.53 0.62,0.73q0.3,0.21 0.74,0.21l0,0l0.05,0.04l-0.07,0.37l-0.94,0.13zm-2.1,-3.69q0,0.03 0.33,-0.14q0.33,-0.18 0.6,-0.54q0.26,-0.36 0.26,-0.94l0,0q0,-1.45 -2.01,-1.45l0,0q-0.11,0 -0.15,0.05q-0.04,0.05 -0.05,0.21l0,0q-0.1,1.68 -0.11,2.7l0,0l1.13,0.11zm8.97,3.55l0.09,-0.47q0.55,-0.04 0.76,-0.14q0.2,-0.09 0.27,-0.34q0.07,-0.25 0.07,-0.87l0,0l0,-4.8q-0.94,0.04 -1.27,0.11q-0.34,0.07 -0.46,0.32q-0.12,0.24 -0.22,0.96l0,0l-0.52,0.04q0.13,-1.04 0.17,-1.9l0,0l0.1,-0.09l0.91,0.12l3.41,0l0.93,-0.12l0.1,0.09q0.04,0.9 0.17,1.86l0,0l-0.52,0.04q-0.12,-0.72 -0.24,-0.98q-0.12,-0.25 -0.43,-0.33q-0.31,-0.07 -1.19,-0.12l0,0q-0.06,0.66 -0.12,2.33q-0.05,1.68 -0.05,3.02l0,0q0,0.41 0.14,0.58q0.14,0.17 0.48,0.17l0,0q0.33,0 0.61,-0.04l0,0l0.03,0.05l-0.1,0.5l-0.36,-0.01l-1.25,-0.02q-0.61,0 -1.51,0.04l0,0zm12.63,0.09q-1.16,0 -1.79,-0.63q-0.62,-0.63 -0.62,-1.8l0,0l0,-3.64q0,-0.35 -0.08,-0.47q-0.09,-0.12 -0.33,-0.12l0,0q-0.11,0 -0.22,0.01q-0.11,0.01 -0.15,0.01l0,0l-0.03,-0.05l0.08,-0.48q0.13,0.01 0.5,0.02q0.37,0.01 0.74,0.01l0,0q0.3,0 0.68,-0.04q0.37,-0.03 0.48,-0.06l0,0l-0.04,0.5q-0.41,0.05 -0.55,0.18q-0.14,0.13 -0.16,0.45l0,0l-0.09,3.23q0,1.09 0.48,1.67q0.47,0.59 1.36,0.59l0,0q0.9,0 1.38,-0.48q0.47,-0.48 0.47,-1.38l0,0q-0.01,-0.88 -0.03,-2.01q-0.03,-1.13 -0.04,-1.58l0,0q-0.02,-0.38 -0.09,-0.49q-0.07,-0.1 -0.31,-0.1l0,0q-0.14,0 -0.28,0.01q-0.14,0.01 -0.2,0.01l0,0l-0.02,-0.05l0.08,-0.48q0.13,0.01 0.5,0.02q0.37,0.01 0.74,0.01l0,0q0.3,0 0.63,-0.04q0.34,-0.03 0.44,-0.06l0,0l-0.05,0.5q-0.33,0.04 -0.49,0.1q-0.16,0.06 -0.21,0.18q-0.06,0.12 -0.06,0.35l0,0l0,3.69q0,1.16 -0.71,1.79q-0.72,0.63 -2.01,0.63l0,0zm14.56,0.31q-0.96,-1.48 -1.86,-2.83q-0.91,-1.35 -1.49,-2.18q-0.59,-0.83 -0.74,-1.05l0,0l-0.06,0l-0.05,4.7q0,0.24 0.08,0.34q0.07,0.1 0.26,0.1l0,0l0.56,-0.01l0.02,0.04l-0.1,0.49q-0.12,-0.01 -0.49,-0.02q-0.38,-0.02 -0.67,-0.02l0,0q-0.28,0 -0.6,0.04q-0.33,0.04 -0.43,0.05l0,0l0.06,-0.51q0.34,-0.04 0.51,-0.2q0.16,-0.16 0.17,-0.49l0,0l0.14,-4.81q0,-0.34 -0.2,-0.48q-0.2,-0.14 -0.75,-0.2l0,0l-0.04,-0.05l0.09,-0.41q0.1,0.01 0.43,0.03q0.33,0.02 0.52,0.02l0,0q0.23,0 0.45,-0.01q0.22,-0.02 0.29,-0.03l0,0q0.81,1.26 1.63,2.47q0.82,1.21 1.37,2q0.55,0.78 0.69,0.99l0,0l0.06,0l0,-4.46q0,-0.47 -0.37,-0.47l0,0l-0.41,0.01l-0.03,-0.05l0.1,-0.49q0.11,0.01 0.42,0.03q0.31,0.01 0.63,0.01l0,0q0.28,0 0.63,-0.04q0.35,-0.03 0.46,-0.04l0,0l-0.06,0.5q-0.38,0.06 -0.56,0.22q-0.18,0.16 -0.19,0.47l0,0l-0.15,6.19l-0.32,0.15zm6.66,-0.31l0.06,-0.5q0.52,-0.1 0.7,-0.3q0.18,-0.19 0.18,-0.65l0,0l0.01,-4.62q0,-0.35 -0.08,-0.47q-0.08,-0.12 -0.32,-0.12l0,0l-0.47,0.02l-0.02,-0.05l0.08,-0.48q0.17,0 0.27,0.01l0,0l1.04,0.02q0.49,0 1.26,-0.1l0,0l-0.04,0.5q-0.45,0.05 -0.61,0.18q-0.16,0.13 -0.18,0.45l0,0q-0.07,1.28 -0.11,2.69q-0.05,1.4 -0.05,2.06l0,0q0,0.45 0.1,0.6q0.1,0.15 0.39,0.15l0,0q0.18,0 0.58,-0.04l0,0l0.02,0.05l-0.1,0.5q-0.15,0 -0.24,-0.01l0,0q-0.77,-0.02 -1.2,-0.02l0,0q-0.54,0 -1.27,0.13l0,0zm8.91,-0.09l0.08,-0.47q0.55,-0.04 0.76,-0.14q0.21,-0.09 0.28,-0.34q0.06,-0.25 0.06,-0.87l0,0l0,-4.8q-0.93,0.04 -1.27,0.11q-0.33,0.07 -0.45,0.32q-0.12,0.24 -0.22,0.96l0,0l-0.52,0.04q0.13,-1.04 0.16,-1.9l0,0l0.1,-0.09l0.92,0.12l3.41,0l0.93,-0.12l0.1,0.09q0.03,0.9 0.17,1.86l0,0l-0.52,0.04q-0.12,-0.72 -0.24,-0.98q-0.12,-0.25 -0.43,-0.33q-0.31,-0.07 -1.19,-0.12l0,0q-0.07,0.66 -0.12,2.33q-0.06,1.68 -0.06,3.02l0,0q0,0.41 0.15,0.58q0.14,0.17 0.48,0.17l0,0q0.33,0 0.61,-0.04l0,0l0.03,0.05l-0.1,0.5l-0.36,-0.01l-1.26,-0.02q-0.6,0 -1.5,0.04l0,0zm9.64,0.09l0.07,-0.5q0.52,-0.1 0.7,-0.3q0.18,-0.19 0.18,-0.65l0,0l0.01,-4.62q0,-0.35 -0.08,-0.47q-0.09,-0.12 -0.33,-0.12l0,0l-0.46,0.02l-0.02,-0.05l0.08,-0.48q0.17,0 0.27,0.01l0,0l1.03,0.02q0.5,0 1.27,-0.1l0,0l-0.04,0.5q-0.46,0.05 -0.61,0.18q-0.16,0.13 -0.19,0.45l0,0q-0.06,1.28 -0.11,2.69q-0.04,1.4 -0.04,2.06l0,0q0,0.45 0.1,0.6q0.1,0.15 0.38,0.15l0,0q0.19,0 0.59,-0.04l0,0l0.02,0.05l-0.1,0.5q-0.15,0 -0.24,-0.01l0,0q-0.77,-0.02 -1.2,-0.02l0,0q-0.54,0 -1.28,0.13l0,0zm13.58,-2.02l0.03,0.05q-0.19,0.89 -0.3,1.85l0,0l-0.05,0.07q-2.31,-0.08 -3.34,-0.08l0,0q-0.81,0 -1.52,0.11l0,0l0.06,-0.51q0.5,-0.06 0.68,-0.25q0.18,-0.2 0.18,-0.67l0,0l0.01,-4.62q0,-0.35 -0.08,-0.47q-0.08,-0.12 -0.33,-0.12l0,0l-0.37,0.02l-0.02,-0.05l0.07,-0.48q1.13,0.03 1.53,0.03l0,0q1.31,0 2.04,-0.02q0.72,-0.03 1.26,-0.11l0,0l0.04,0.07q-0.2,0.87 -0.26,1.82l0,0l-0.52,0.05l0.02,-0.48q0,-0.38 -0.1,-0.53q-0.1,-0.15 -0.43,-0.2q-0.33,-0.05 -1.16,-0.05l0,0q-0.38,0 -0.52,0.03q-0.15,0.02 -0.19,0.1q-0.04,0.08 -0.06,0.3l0,0l-0.08,2.14l1.13,0.01q0.43,0 1.34,-0.12l0,0l0.05,0.05l-0.16,0.65q-1.22,-0.03 -1.54,-0.03l0,0q-0.36,0 -0.85,0.07l0,0l-0.04,2.1q0,0.32 0.06,0.45q0.05,0.13 0.22,0.17q0.17,0.05 0.59,0.05l0,0q0.92,0 1.31,-0.09q0.39,-0.09 0.56,-0.35q0.16,-0.27 0.25,-0.91l0,0l0.49,-0.05zm7.49,2.02q-0.46,0 -0.85,-0.08q-0.38,-0.08 -0.63,-0.18q-0.25,-0.1 -0.25,-0.11l0,0l-0.05,-0.11q0.01,-0.07 0.04,-0.33q0.03,-0.27 0.06,-0.69q0.03,-0.42 0.03,-0.9l0,0l0.49,-0.05q0,0.82 0.11,1.22q0.11,0.4 0.41,0.54q0.3,0.15 0.91,0.15l0,0q0.7,0 1.11,-0.32q0.42,-0.33 0.42,-0.89l0,0q0,-0.33 -0.22,-0.59q-0.23,-0.26 -0.54,-0.45q-0.31,-0.19 -0.91,-0.51l0,0q-0.57,-0.29 -0.94,-0.54q-0.36,-0.25 -0.61,-0.59q-0.24,-0.34 -0.24,-0.79l0,0q0,-0.58 0.33,-1.04q0.34,-0.47 0.92,-0.74q0.57,-0.27 1.28,-0.27l0,0q0.44,0 0.81,0.06q0.37,0.06 0.59,0.13q0.22,0.06 0.28,0.09l0,0l0.03,0.06q-0.01,0.07 -0.05,0.31q-0.05,0.24 -0.1,0.67q-0.06,0.43 -0.09,0.88l0,0l-0.43,0.05l-0.06,-0.06q0.01,-0.04 0.02,-0.2q0.01,-0.16 0.01,-0.37l0,0q0,-0.58 -0.29,-0.8q-0.28,-0.22 -1.02,-0.22l0,0q-0.61,0 -1,0.3q-0.39,0.3 -0.39,0.75l0,0q0,0.44 0.38,0.77q0.38,0.32 1.12,0.71l0,0q0.71,0.36 1.09,0.59q0.37,0.24 0.66,0.59q0.28,0.36 0.28,0.82l0,0q0,0.61 -0.34,1.1q-0.35,0.49 -0.96,0.77q-0.62,0.27 -1.41,0.27l0,0z" paint-order="stroke" id="svg_12"/>
    </g>
   </g>
  </g>
  <g id="svg_1" transform="matrix(1.52229 0 0 1.52229 657.996 369.998)">
   <g paint-order="stroke" id="svg_13">
    <g id="svg_2">
     <path fill-rule=" nonzero" fill="#8391AE" stroke-miterlimit="4" stroke-linejoin=" miter" stroke-dashoffset="0" stroke-dasharray=" none" stroke=" none" stroke-linecap=" butt" d="m-18.69002,-49.82329l-105.7019,-23.97437l24.40192,-38.7182c0.47711,-0.75739 0.36694,-1.74371 -0.26636,-2.37708c-0.6333,-0.6322 -1.62067,-0.74243 -2.37701,-0.26636l-38.71509,24.3999l-23.97845,-105.70111c-0.19897,-0.87396 -0.97455,-1.49335 -1.86993,-1.49335c-0.89545,0 -1.67151,0.61938 -1.86945,1.49335l-23.97302,105.7027l-38.71735,-24.40149c-0.75739,-0.47821 -1.7442,-0.36694 -2.3775,0.26636c-0.6333,0.63336 -0.74402,1.61969 -0.26642,2.37708l24.40216,38.71844l-105.70532,23.97412c-0.87292,0.19897 -1.49286,0.97455 -1.49286,1.87c0,0.89539 0.61993,1.67096 1.49286,1.86993l105.70471,23.9729l-24.40155,38.71753c-0.4776,0.75739 -0.36688,1.74371 0.26642,2.37708c0.6333,0.6344 1.62012,0.74347 2.3775,0.26636l38.71722,-24.40076l23.97314,105.703c0.19794,0.87402 0.974,1.49341 1.86945,1.49341c0.89539,0 1.67096,-0.61938 1.86993,-1.49341l23.97852,-105.70148l38.71503,24.39923c0.31451,0.19897 0.66864,0.29529 1.02057,0.29529c0.4953,0 0.98633,-0.19153 1.35645,-0.56165c0.6333,-0.63336 0.74347,-1.61969 0.26636,-2.37708l-24.40131,-38.71716l105.70129,-23.97327c0.87402,-0.19895 1.4934,-0.97453 1.4934,-1.86991c0,-0.89545 -0.61938,-1.67102 -1.49341,-1.87zm-17.54767,-0.04815l-49.94275,0l6.24396,-9.91132l43.69879,9.91132zm-47.66314,-10.81043l-6.81073,10.81042l-48.75983,0l12.91125,-20.48596l42.65931,9.67554zm-59.3863,9.67487l-9.18542,-9.18542l40.51086,-40.51855l-31.32544,49.70397zm28.8595,-52.18726l-40.51953,40.52722l-9.19501,-9.19501l49.71454,-31.33221zm-50.85223,-75.72577l9.91467,43.70581l-9.91467,6.24603l0,-49.95184zm0,54.48297l10.81396,-6.81293l9.67719,42.65881l-20.49115,12.91443l0,-48.76031zm-1.91541,54.94397l16.73749,16.73712l-15.70355,-10.0564c-0.63013,-0.40442 -1.43781,-0.40442 -2.06787,0l-15.70093,10.05414l16.73486,-16.73486zm17.12641,21.5387l-17.1264,10.96729l-17.12695,-10.96729l17.12695,-10.96729l17.1264,10.96729zm-19.04505,-130.96368l0,49.94861l-9.91199,-6.24445l9.91199,-43.70416zm-10.81103,47.66858l10.81104,6.8111l0,48.75958l-20.48602,-12.91132l9.67498,-42.65936zm9.67688,59.38763l-8.6817,8.68152l-38.27472,-38.27515l46.95642,29.59363zm-53.92029,-31.60834l42.76392,42.7644l-9.69904,9.69885l-33.06488,-52.46325zm16.33826,33.11328l12.91095,20.48547l-48.7605,0l-6.81061,-10.81024l42.66016,-9.67523zm-46.62452,10.57441l6.24384,9.91107l-49.94427,0l43.70043,-9.91107zm-43.70947,13.74517l49.95459,0l-6.24542,9.91266l-43.70917,-9.91266zm47.67365,10.81177l6.81207,-10.81177l48.75922,0l-12.91156,20.48639l-42.65973,-9.67462zm59.38696,-9.67621l9.19092,9.1911l-40.52124,40.52094l31.33032,-49.71204zm-28.85321,52.18415l40.51868,-40.51837l9.18994,9.19012l-49.70862,31.32825zm50.84277,75.72802l-9.91205,-43.70447l9.91205,-6.24359l0,49.94806zm0,-54.47912l-10.8111,6.8103l-9.67505,-42.65942l20.48615,-12.91107l0,48.76019zm1.91864,-54.94593l-16.73553,-16.73633l15.7016,10.05457c0.31506,0.20221 0.6745,0.3028 1.03394,0.3028c0.35944,0 0.71887,-0.10059 1.03394,-0.3028l15.70422,-10.05676l-16.73817,16.73852zm1.91541,109.42695l0,-49.9527l9.91498,6.24554l-9.91498,43.70716zm10.81427,-47.67139l-10.81427,-6.81232l0,-48.75952l20.49121,12.91412l-9.67694,42.65772zm-9.67664,-59.38654l9.69421,-9.6947l42.76404,42.75604l-52.45825,-33.06134zm50.45313,26.10791l-38.28436,-38.27728l8.68634,-8.68671l29.59802,46.96399zm-12.87043,-27.61267l-12.91187,-20.48694l48.75989,0l6.81201,10.81171l-42.66003,9.67523zm46.62452,-10.57434l-6.24536,-9.9126l49.95172,0l-43.70636,9.9126zm-74.0492,-122.35473c0.09735,-0.74994 0.78308,-1.28375 1.53619,-1.17889c50.46075,6.62292 90.33307,46.49316 96.96027,96.95618c0.09839,0.74988 -0.42902,1.43774 -1.17889,1.53619c-0.06097,0.00854 -0.12091,0.01178 -0.18079,0.01178c-0.67609,0 -1.26447,-0.50177 -1.35541,-1.19067c-6.46674,-49.23596 -45.36871,-88.13599 -94.60248,-94.59839c-0.74883,-0.09846 -1.27734,-0.78633 -1.17889,-1.5362zm-26.42535,221.05657c-0.09039,0.68896 -0.67877,1.19067 -1.3559,1.19067c-0.05939,0 -0.11926,-0.00323 -0.17975,-0.01178c-50.4613,-6.62823 -90.33307,-46.50067 -96.9613,-96.96149c-0.09839,-0.74994 0.4295,-1.43781 1.17944,-1.53619c0.7536,-0.10272 1.43719,0.43005 1.53564,1.17889c6.46722,49.23383 45.3692,88.13593 94.60248,94.60376c0.74988,0.0984 1.27784,0.78627 1.17939,1.53614zm-1.53565,-222.24084c0.75421,-0.1059 1.43726,0.42902 1.53564,1.17889c0.09845,0.74994 -0.4295,1.43781 -1.17938,1.53619c-49.23328,6.46777 -88.13525,45.36993 -94.60248,94.60376c-0.09039,0.6889 -0.67877,1.19067 -1.35596,1.19067c-0.05939,0 -0.11926,-0.00323 -0.17969,-0.01178c-0.74994,-0.09845 -1.27783,-0.78632 -1.17944,-1.53619c6.62824,-50.46087 46.50001,-90.33324 96.96131,-96.96154zm29.4972,223.41437c-0.06097,0.00861 -0.12091,0.01178 -0.18079,0.01178c-0.67609,0 -1.26556,-0.50171 -1.35541,-1.19061c-0.09845,-0.74994 0.43005,-1.43781 1.17889,-1.53619c49.23376,-6.46246 88.13574,-45.36243 94.60248,-94.59839c0.09949,-0.75098 0.78735,-1.28479 1.53619,-1.17889c0.74988,0.09839 1.27728,0.78625 1.17889,1.53619c-6.62718,50.46294 -46.4995,90.33324 -96.96025,96.95611zm3.42431,-229.44354c6.94275,1.06335 13.81384,2.74823 20.42072,5.0108c34.55231,11.82623 62.25494,39.51074 74.1026,74.0567c2.27435,6.61975 3.96667,13.48767 5.03113,20.41333c0.0802,0.52313 0.45465,0.95312 0.96173,1.10504c0.12939,0.03851 0.26099,0.0567 0.39148,0.0567c0.383,0 0.75525,-0.16046 1.01843,-0.45465c5.29639,-5.89441 7.76862,-13.0094 7.87134,-13.31c0.17438,-0.50812 0.03424,-1.07086 -0.35626,-1.43988c-0.16376,-0.15369 -2.9917,-2.78583 -7.2558,-5.27893c2.0918,-4.48499 2.9165,-8.2511 2.96393,-8.47296c0.1123,-0.52527 -0.09412,-1.06763 -0.5274,-1.38641c-0.18201,-0.1347 -3.29877,-2.40308 -7.84064,-4.36786c1.53625,-4.70361 1.90131,-8.54108 1.92163,-8.76672c0.04816,-0.53595 -0.22247,-1.04944 -0.69,-1.31366c-0.19702,-0.11206 -3.56519,-1.98932 -8.3111,-3.39294c0.95813,-4.85492 0.85803,-8.70874 0.85059,-8.93512c-0.01715,-0.53699 -0.34662,-1.0152 -0.84296,-1.22058c-0.2099,-0.08728 -3.77802,-1.54034 -8.65851,-2.36176c0.367,-4.93683 -0.19666,-8.7525 -0.23126,-8.97668c-0.0813,-0.53058 -0.46643,-0.9649 -0.98419,-1.11041c-0.21814,-0.06018 -3.93695,-1.07611 -8.88104,-1.30359c-0.23102,-4.94379 -1.25,-8.66248 -1.31165,-8.88055c-0.14447,-0.51672 -0.5788,-0.90186 -1.11041,-0.98315c-0.22339,-0.03455 -4.03766,-0.5954 -8.97284,-0.22546c-0.82452,-4.87964 -2.28375,-8.44775 -2.37097,-8.65686c-0.20648,-0.49634 -0.68463,-0.82587 -1.22168,-0.84186c-0.22418,-0.01135 -4.07965,-0.10767 -8.93512,0.8551c-1.40698,-4.74365 -3.28583,-8.10931 -3.39709,-8.30713c-0.26532,-0.46637 -0.78522,-0.72955 -1.31372,-0.6889c-0.22565,0.02032 -4.06323,0.38806 -8.76617,1.9278c-1.96838,-4.54083 -4.23907,-7.65625 -4.37372,-7.83826c-0.31989,-0.43219 -0.86438,-0.63971 -1.38751,-0.52631c-0.22186,0.04736 -3.98865,0.875 -8.47278,2.97058c-2.50104,-4.27118 -5.13055,-7.0907 -5.28436,-7.25391c-0.37018,-0.3905 -0.9339,-0.5285 -1.44098,-0.35516c-0.29956,0.10376 -7.40814,2.5824 -13.30359,7.88202c-0.39368,0.35406 -0.54773,0.90289 -0.39581,1.40991c0.1508,0.50706 0.58085,0.88151 1.10398,0.96172zm86.2732,55.01184c-0.14172,-0.23462 -0.28638,-0.46716 -0.42963,-0.70074c0.19733,0.04089 0.39154,0.08441 0.586,0.12823c-0.05091,0.19061 -0.10181,0.38073 -0.15637,0.57251zm6.81921,12.98968c-0.10254,-0.22833 -0.21222,-0.45276 -0.31616,-0.68036c0.17487,0.0592 0.34613,0.12097 0.51831,0.18231c-0.06665,0.16596 -0.13233,0.33143 -0.20215,0.49805zm5.18182,13.76807c-0.0719,-0.23309 -0.13556,-0.46899 -0.20892,-0.7016c0.15985,0.07678 0.3089,0.1593 0.466,0.23779c-0.08496,0.15466 -0.16894,0.30896 -0.25708,0.46381zm8.61127,5.06555c-0.66217,1.65704 -2.35455,5.49646 -5.12524,9.22668c-0.65057,-3.62091 -1.47559,-7.21686 -2.45404,-10.76617c0.59668,-0.89044 1.1416,-1.78998 1.63403,-2.68414c2.78754,1.64813 4.91876,3.35009 5.94525,4.22363zm-4.63208,-14.84198c-0.34705,1.30341 -1.13025,3.91675 -2.48444,6.85901c-0.91382,-0.45477 -1.86816,-0.88934 -2.86438,-1.28021c-0.72998,-2.09143 -1.5202,-4.15649 -2.362,-6.19623c0.48505,-0.95599 0.91779,-1.91492 1.29895,-2.86212c2.96601,1.30084 5.28663,2.7351 6.41187,3.47955zm-13.1734,-16.85791c3.10193,0.93433 5.57904,2.07904 6.78589,2.68243c-0.18695,1.33508 -0.64789,4.02167 -1.63989,7.10846c-0.97034,-0.34485 -1.9845,-0.65833 -3.03149,-0.92969c-0.97339,-1.97034 -1.99738,-3.91241 -3.07404,-5.82263c0.37286,-1.02105 0.69177,-2.03894 0.95953,-3.03857zm-8.32361,-12.46546c3.19049,0.55371 5.78687,1.39093 7.05737,1.84424c-0.02515,1.349 -0.16022,4.07349 -0.77118,7.25372c-1.01978,-0.2287 -2.08014,-0.41986 -3.16888,-0.56372c-1.19147,-1.81799 -2.4306,-3.60248 -3.71552,-5.3526c0.25263,-1.07537 0.45051,-2.14105 0.59821,-3.18164zm-2.80969,0.26142c-0.17981,-0.23022 -0.35687,-0.46271 -0.53827,-0.69153c0.21179,0.01758 0.42365,0.03461 0.63269,0.05573c-0.02978,0.2113 -0.06049,0.42254 -0.09442,0.6358zm-6.95563,-11.63446c3.23456,0.16504 5.91296,0.68329 7.229,0.98132c0.13715,1.34229 0.33112,4.06451 0.10724,7.29706c-1.04797,-0.10535 -2.13251,-0.16815 -3.23969,-0.17993c-1.39313,-1.65417 -2.83154,-3.26898 -4.30902,-4.84723c0.12269,-1.10504 0.19123,-2.19379 0.21247,-3.25122zm-2.75751,0.60876c-0.21021,-0.21161 -0.42114,-0.42236 -0.63287,-0.63251c0.21851,-0.0083 0.43481,-0.01373 0.65088,-0.01801c-0.00421,0.21595 -0.00964,0.43214 -0.01801,0.65052zm-1.01171,-10.61822c0.29901,1.31396 0.82062,3.98993 0.98712,7.22833c-1.05743,0.02203 -2.14636,0.09131 -3.25153,0.21472c-1.57941,-1.47668 -3.19525,-2.91431 -4.85046,-4.30664c-0.01166,-1.1073 -0.07458,-2.19214 -0.18036,-3.2403c3.23114,-0.2257 5.95276,-0.03253 7.29523,0.10389zm-10.02039,0.18487c0.02136,0.2099 0.04193,0.41998 0.05975,0.63257c-0.22906,-0.1814 -0.46167,-0.35828 -0.69208,-0.53802c0.2121,-0.034 0.42219,-0.0647 0.63233,-0.09455zm-2.22308,-9.77105c0.45435,1.27026 1.29382,3.86621 1.84961,7.05676c-1.03992,0.14825 -2.10492,0.34674 -3.17957,0.59991c-1.75183,-1.28448 -3.53796,-2.52307 -5.3576,-3.71411c-0.14459,-1.08771 -0.33655,-2.14703 -0.56586,-3.16571c3.17981,-0.61322 5.90436,-0.75036 7.25342,-0.77685zm-9.9242,1.39166c0.0437,0.19342 0.0871,0.38666 0.12805,0.58289c-0.23254,-0.1424 -0.46405,-0.28613 -0.69751,-0.42694c0.19074,-0.05451 0.37989,-0.10517 0.56946,-0.15595zm-3.38476,-9.43201c0.60394,1.20587 1.75018,3.68103 2.68646,6.78082c-0.9986,0.26843 -2.01532,0.58789 -3.03528,0.96106c-1.91168,-1.07593 -3.85529,-2.09912 -5.82721,-3.07166c-0.27191,-1.04517 -0.58557,-2.05737 -0.93066,-3.026c3.08276,-0.992 5.77087,-1.45617 7.10669,-1.64422zm-9.68287,2.57605c0.06097,0.17096 0.12225,0.34106 0.18115,0.51471c-0.2262,-0.10315 -0.44916,-0.2121 -0.67603,-0.31378c0.16548,-0.06952 0.32997,-0.13458 0.49488,-0.20093zm-4.49682,-8.95508c0.74512,1.12231 2.18182,3.43927 3.48572,6.40845c-0.94604,0.38141 -1.90387,0.81433 -2.85864,1.29956c-2.04224,-0.84137 -4.1098,-1.63092 -6.2038,-2.36023c-0.39276,-0.99463 -0.828,-1.94672 -1.28278,-2.85809c2.94232,-1.35694 5.5564,-2.14191 6.8595,-2.48969zm-9.315,3.73084c0.07715,0.15393 0.15808,0.29956 0.23376,0.45624c-0.22803,-0.07159 -0.45953,-0.13385 -0.68805,-0.20416c0.15167,-0.08649 0.3028,-0.16865 0.45429,-0.25208zm-5.53333,-8.35327c0.87256,1.02423 2.57086,3.15002 4.22485,5.94495c-0.89136,0.49188 -1.78796,1.03595 -2.67542,1.63147c-3.54712,-0.97369 -7.14502,-1.7951 -10.77191,-2.44373c3.72919,-2.77283 7.56648,-4.46839 9.22248,-5.13269zm-150.90851,107.52972c0.26422,0.29309 0.63599,0.45355 1.01843,0.45355c0.13049,0 0.26263,-0.01819 0.39154,-0.0567c0.50702,-0.15192 0.88147,-0.58191 0.96167,-1.10504c1.06287,-6.91711 2.75415,-13.78497 5.02576,-20.41437c11.85144,-34.54175 39.55402,-62.2262 74.10315,-74.05566c6.6261,-2.26471 13.49615,-3.95068 20.42023,-5.0108c0.52307,-0.0802 0.95367,-0.45465 1.10504,-0.96173c0.15137,-0.50702 -0.00323,-1.05585 -0.39691,-1.40991c-5.8949,-5.29962 -13.00348,-7.77826 -13.30304,-7.88202c-0.50812,-0.17224 -1.0719,-0.03534 -1.44098,0.35516c-0.15375,0.16321 -2.78314,2.98242 -5.28418,7.25299c-4.48322,-2.09497 -8.24896,-2.9223 -8.47083,-2.96967c-0.52582,-0.11237 -1.06818,0.09412 -1.38751,0.52631c-0.13422,0.18201 -2.4054,3.29742 -4.37347,7.8382c-4.70282,-1.53967 -8.54022,-1.90741 -8.76593,-1.92773c-0.53381,-0.04388 -1.04944,0.22144 -1.31415,0.69c-0.11169,0.19702 -1.99048,3.56287 -3.39697,8.3067c-4.85376,-0.96161 -8.70648,-0.86407 -8.93475,-0.85577c-0.53705,0.01599 -1.0152,0.34552 -1.22168,0.84186c-0.08685,0.20911 -1.54614,3.77704 -2.37097,8.65662c-4.93494,-0.36975 -8.74841,0.19189 -8.97333,0.22571c-0.53113,0.0813 -0.96545,0.46643 -1.11096,0.98315c-0.06134,0.21808 -1.08038,3.93652 -1.31122,8.87988c-4.94397,0.22711 -8.66193,1.24335 -8.88043,1.30426c-0.51721,0.14551 -0.90234,0.57983 -0.98419,1.11041c-0.03461,0.22418 -0.59833,4.04071 -0.23126,8.97827c-4.88702,0.82159 -8.4494,2.27283 -8.659,2.36017c-0.4964,0.20538 -0.82642,0.68359 -0.84351,1.22058c-0.00714,0.22638 -0.10712,4.08032 0.85114,8.93524c-4.74548,1.40356 -8.11316,3.28076 -8.31061,3.39282c-0.46753,0.26422 -0.73761,0.77771 -0.69,1.31366c0.02032,0.22565 0.38531,4.06305 1.92157,8.76642c-4.54211,1.9649 -7.65924,4.23346 -7.84167,4.36816c-0.43268,0.31879 -0.63861,0.86115 -0.52686,1.38641c0.047,0.22186 0.87231,3.98859 2.96478,8.47412c-4.27405,2.49738 -7.09558,5.1239 -7.25879,5.27777c-0.39154,0.36902 -0.53064,0.93176 -0.35675,1.44092c0.10266,0.29956 2.57598,7.41455 7.87664,13.31006zm89.27985,-107.53082c1.65442,0.66217 5.48737,2.35352 9.22351,5.13379c-3.62134,0.64771 -7.21851,1.46973 -10.76978,2.44446c-0.89008,-0.59735 -1.78943,-1.14313 -2.68353,-1.63623c1.65064,-2.78595 3.35504,-4.91614 4.2298,-5.94202zm-5.53809,8.3504c0.15399,0.08478 0.30762,0.1684 0.46179,0.25629c-0.23212,0.07135 -0.46716,0.13446 -0.69879,0.20709c0.0766,-0.15887 0.15876,-0.30707 0.237,-0.46338zm-9.307,-3.72687c1.30304,0.34766 3.91553,1.13232 6.85638,2.48846c-0.45508,0.9118 -0.89044,1.86426 -1.28345,2.85931c-2.09302,0.72931 -4.15955,1.51874 -6.20087,2.35999c-0.95416,-0.48486 -1.91113,-0.91742 -2.85663,-1.29865c1.30311,-2.96501 2.73914,-5.28453 3.48457,-6.40911zm-4.49634,8.95465c0.16479,0.06635 0.32898,0.13165 0.49445,0.20111c-0.22681,0.10168 -0.45001,0.21069 -0.67621,0.31378c0.05902,-0.17376 0.1206,-0.3438 0.18176,-0.51489zm-9.68396,-2.57672c1.33478,0.18695 4.02106,0.64954 7.1073,1.64362c-0.34521,0.9693 -0.659,1.98218 -0.93091,3.02802c-1.97174,0.97266 -3.91516,1.99591 -5.82666,3.07184c-1.02051,-0.37329 -2.03766,-0.69287 -3.03656,-0.96124c0.93646,-3.1009 2.08282,-5.57679 2.68683,-6.78224zm-3.38489,9.43317c0.19006,0.05084 0.3797,0.10181 0.57092,0.15643c-0.23419,0.14117 -0.46625,0.2854 -0.6994,0.42816c0.04102,-0.19677 0.08466,-0.39062 0.12848,-0.58459zm-9.92401,-1.39172c1.34875,0.02649 4.07336,0.16357 7.25342,0.77692c-0.22931,1.01917 -0.42102,2.0791 -0.56561,3.16718c-1.81897,1.19067 -3.60449,2.42896 -5.35565,3.71307c-1.0755,-0.2536 -2.1413,-0.45227 -3.18195,-0.60071c0.55603,-3.19038 1.39544,-5.7862 1.84979,-7.05646zm-2.22333,9.77056c0.21112,0.02997 0.42218,0.0611 0.63519,0.09534c-0.23145,0.18048 -0.46509,0.35834 -0.69519,0.54047c0.01783,-0.21375 0.03858,-0.42481 0.06,-0.63581zm-10.01959,-0.18542c1.34076,-0.13788 4.05994,-0.33191 7.29462,-0.10461c-0.10608,1.04956 -0.16913,2.13586 -0.18073,3.24487c-1.6543,1.39154 -3.26917,2.82831 -4.8476,4.30408c-1.10553,-0.12366 -2.19482,-0.19305 -3.25262,-0.21527c0.16748,-3.23499 0.68823,-5.91358 0.98633,-7.22907zm-0.37677,9.98676c-0.21265,0.21106 -0.42456,0.42267 -0.63562,0.63513c-0.0083,-0.21936 -0.01361,-0.43646 -0.01776,-0.6535c0.21692,0.00433 0.43402,0.00994 0.65338,0.01837zm-10.34894,11.66058c-0.03467,-0.21735 -0.06586,-0.43262 -0.09619,-0.64801c0.21436,-0.02124 0.42908,-0.04138 0.64642,-0.05884c-0.18548,0.23395 -0.36645,0.47156 -0.55023,0.70685zm-0.27307,-10.65656c1.31439,-0.29761 3.9906,-0.81659 7.22852,-0.9812c0.02136,1.05841 0.09021,2.14832 0.21313,3.25439c-1.47699,1.57776 -2.91504,3.19202 -4.3078,4.84558c-1.10852,0.01257 -2.19366,0.07581 -3.2417,0.18127c-0.22406,-3.23381 -0.02972,-5.95751 0.10785,-7.30004zm-20.05518,49.4917c-0.08734,-0.15344 -0.17041,-0.30634 -0.25464,-0.45959c0.15564,-0.07782 0.30298,-0.15948 0.46136,-0.23584c-0.0725,0.23053 -0.13549,0.46441 -0.20672,0.69543zm5.18226,-13.76812c-0.06976,-0.16656 -0.13519,-0.33197 -0.20178,-0.49786c0.17194,-0.06122 0.34296,-0.12268 0.5177,-0.18182c-0.10389,0.22734 -0.21351,0.45159 -0.31592,0.67968zm6.81958,-12.98774c-0.05475,-0.19208 -0.10571,-0.38251 -0.15662,-0.57343c0.19476,-0.04388 0.38934,-0.08752 0.58704,-0.12848c-0.1435,0.23396 -0.28852,0.46693 -0.43042,0.70191zm5.51446,-12.35821c0.14795,1.0459 0.34674,2.11749 0.60071,3.19861c-1.28455,1.74945 -2.52325,3.53314 -3.71454,5.35052c-1.08923,0.14392 -2.15021,0.33514 -3.17041,0.56396c-0.61108,-3.18127 -0.74591,-5.90625 -0.77106,-7.25476c1.26917,-0.45416 3.86072,-1.30358 7.0553,-1.85833zm-8.32153,12.48089c0.26776,0.99969 0.58679,2.0177 0.95966,3.03882c-1.07672,1.91003 -2.10077,3.85187 -3.07428,5.82202c-1.04645,0.27124 -2.05994,0.58441 -3.02979,0.92908c-0.98969,-3.0835 -1.45215,-5.77191 -1.63989,-7.10779c1.20678,-0.60333 3.68322,-1.74786 6.7843,-2.68213zm-13.17346,16.85651c1.1239,-0.74438 3.44189,-2.17871 6.41168,-3.4801c0.3811,0.9472 0.81384,1.90613 1.29889,2.86212c-0.84229,2.04034 -1.63293,4.1059 -2.36334,6.19788c-0.99603,0.39233 -1.94946,0.82715 -2.86206,1.28156c-1.3548,-2.94337 -2.13807,-5.55775 -2.48517,-6.86146zm1.31561,10.62299c0.492,0.89319 1.03644,1.79169 1.63239,2.68109c-0.97791,3.55231 -1.80243,7.14923 -2.4527,10.76782c-2.77283,-3.73022 -4.4668,-7.57178 -5.13007,-9.22882c1.02551,-0.87146 3.15381,-2.5683 5.95038,-4.22009zm100.93945,152.85772c-6.92084,-1.05371 -13.79248,-2.73859 -20.42395,-5.0108c-34.52344,-11.81659 -62.21216,-39.47223 -74.07745,-73.98395c-0.00751,-0.02673 -0.01605,-0.05243 -0.02515,-0.07916c-2.27167,-6.61548 -3.96295,-13.47803 -5.02686,-20.39728c-0.0802,-0.52203 -0.45465,-0.95209 -0.96167,-1.104c-0.50653,-0.14978 -1.05591,0.00427 -1.40997,0.39691c-5.30066,5.89545 -7.77399,13.00513 -7.87665,13.30463c-0.17389,0.50812 -0.03479,1.0719 0.3562,1.44098c0.16351,0.15381 2.9859,2.78143 7.25897,5.27783c-2.09229,4.48474 -2.91742,8.2511 -2.96442,8.47296c-0.11176,0.52527 0.09418,1.06763 0.52686,1.38641c0.18243,0.1347 3.29956,2.40381 7.84174,4.36859c-1.53625,4.70392 -1.90131,8.54144 -1.92163,8.76709c-0.04761,0.53595 0.22247,1.04944 0.69055,1.31366c0.19702,0.11206 3.5647,1.98865 8.31018,3.39197c-0.95831,4.85492 -0.8584,8.70862 -0.85126,8.935c0.01709,0.53699 0.34711,1.0152 0.84351,1.22058c0.20953,0.08734 3.77942,1.54327 8.65857,2.36481c-0.36639,4.93512 0.19708,8.74945 0.23169,8.97363c0.08185,0.53064 0.46698,0.96497 0.98419,1.11041c0.21857,0.06085 3.93549,1.07935 8.88062,1.30658c0.23102,4.94226 1.24969,8.65948 1.31104,8.87756c0.14551,0.51672 0.57983,0.90186 1.11096,0.98315c0.16956,0.02563 2.38287,0.35516 5.58258,0.35516c1.03827,0 2.1817,-0.03577 3.39117,-0.12659c0.82495,4.87805 2.28369,8.44464 2.37054,8.65375c0.20648,0.49634 0.68463,0.82587 1.22168,0.84186c0.04437,0.0022 0.22675,0.00647 0.52844,0.00647c1.24109,0 4.50073,-0.08929 8.40613,-0.86267c1.40649,4.74414 3.2854,8.11011 3.39716,8.30713c0.24438,0.43219 0.70117,0.69537 1.19116,0.69537c0.04065,0 0.08185,-0.00214 0.12299,-0.00537c0.22571,-0.02032 4.06305,-0.38806 8.76581,-1.92761c1.96808,4.54053 4.23938,7.65607 4.3736,7.83807c0.2616,0.35406 0.67291,0.55627 1.10187,0.55627c0.09467,0 0.19043,-0.00964 0.28564,-0.02997c0.22186,-0.04736 3.98785,-0.87476 8.47131,-2.96991c2.50092,4.27216 5.12994,7.09119 5.28369,7.25433c0.26373,0.27814 0.62579,0.42896 0.99597,0.42896c0.14923,0 0.2995,-0.0246 0.44556,-0.07489c0.2995,-0.10266 7.4129,-2.58667 13.30786,-7.88629c0.39423,-0.35406 0.54828,-0.90393 0.39691,-1.41101c-0.15191,-0.50706 -0.58252,-0.88145 -1.10614,-0.96062zm-86.27405,-55.0111c0.14252,0.23602 0.28809,0.47003 0.43225,0.70502c-0.19873,-0.04114 -0.39429,-0.08502 -0.59003,-0.12909c0.05122,-0.19172 0.10267,-0.38306 0.15778,-0.57593zm-6.81897,-12.98774c0.10291,0.22919 0.21301,0.45465 0.31738,0.68311c-0.17548,-0.05951 -0.34741,-0.12128 -0.52014,-0.18286c0.06684,-0.16669 0.1327,-0.33301 0.20276,-0.50025zm-5.18151,-13.7677c0.07239,0.23456 0.13647,0.47198 0.21027,0.70605c-0.16089,-0.07727 -0.31091,-0.16028 -0.46899,-0.2392c0.08556,-0.15569 0.16991,-0.31096 0.25872,-0.46685zm-8.61475,-5.06323c0.66272,-1.65601 2.35669,-5.49432 5.12952,-9.22351c0.65076,3.61884 1.47559,7.2132 2.45355,10.76117c-0.59747,0.8913 -1.14319,1.79187 -1.63611,2.68707c-2.7876,-1.64789 -4.91956,-3.35071 -5.94696,-4.22473zm4.63476,14.84088c0.34705,-1.30359 1.13019,-3.91711 2.48456,-6.85944c0.91351,0.45465 1.8678,0.88959 2.86481,1.28168c0.73004,2.09088 1.52026,4.15527 2.362,6.1944c-0.48535,0.95654 -0.91827,1.91583 -1.29956,2.86353c-2.96613,-1.30097 -5.28681,-2.73566 -6.41181,-3.48017zm13.17304,16.85803c-3.10114,-0.93396 -5.57764,-2.07812 -6.78442,-2.68152c0.18774,-1.33588 0.65015,-4.02466 1.63989,-7.10852c0.97058,0.34485 1.98492,0.6582 3.03223,0.92944c0.97308,1.96936 1.99664,3.91046 3.07288,5.81964c-0.37324,1.02192 -0.69251,2.0406 -0.96058,3.04096zm8.32086,12.48456c-3.19055,-0.55609 -5.78601,-1.40991 -7.05585,-1.86346c0.02423,-1.3476 0.15778,-4.07025 0.77051,-7.25403c1.0213,0.22913 2.08356,0.42053 3.17413,0.56451c1.19086,1.81671 2.42908,3.59973 3.71313,5.34863c-0.25457,1.08314 -0.45379,2.15662 -0.60192,3.20435zm2.8125,-0.28528c0.18579,0.23779 0.36865,0.47797 0.55609,0.71436c-0.21973,-0.01746 -0.43683,-0.03784 -0.65375,-0.05927c0.03071,-0.21771 0.06244,-0.43536 0.09766,-0.65509zm6.95551,11.63764c-3.23535,-0.16528 -5.91412,-0.68311 -7.22968,-0.97986c-0.13818,-1.34113 -0.33362,-4.06024 -0.10883,-7.29492c1.052,0.10553 2.13855,0.172 3.25006,0.18274c1.39087,1.65112 2.82684,3.26276 4.3017,4.83826c-0.12304,1.10595 -0.19183,2.19561 -0.21325,3.25378zm2.75726,-0.61231c0.21149,0.21295 0.42371,0.42505 0.63678,0.63647c-0.21991,0.00836 -0.43756,0.01379 -0.65491,0.01807c0.00428,-0.21728 0.00971,-0.43475 0.01813,-0.65454zm1.01184,10.62323c-0.29932,-1.31543 -0.8219,-3.99567 -0.98792,-7.23883c1.05731,-0.02197 2.14148,-0.09082 3.24652,-0.21423c1.58118,1.4787 3.1991,2.91803 4.85638,4.31213c0.01154,1.10889 0.07452,2.19525 0.18048,3.24481c-3.23119,0.22577 -5.95324,0.03254 -7.29546,-0.10388zm10.02063,-0.18499c-0.02155,-0.21136 -0.04218,-0.42285 -0.06012,-0.63696c0.23071,0.18262 0.46484,0.36072 0.69684,0.54169c-0.2135,0.03417 -0.42511,0.06524 -0.63672,0.09527zm2.22339,9.77118c-0.45422,-1.26978 -1.29321,-3.86432 -1.84918,-7.05328c1.04083,-0.14856 2.1087,-0.34985 3.1842,-0.60352c1.75018,1.2832 3.53455,2.52069 5.35248,3.71051c0.14453,1.08899 0.33643,2.1496 0.56592,3.16937c-3.18006,0.61334 -5.90467,0.75049 -7.25342,0.77692zm9.92303,-1.39155c-0.04401,-0.19495 -0.08765,-0.38989 -0.12878,-0.58777c0.23438,0.14349 0.46777,0.28851 0.70319,0.43042c-0.19233,0.055 -0.38318,0.10621 -0.57441,0.15735zm3.38483,9.43189c-0.60443,-1.2041 -1.75061,-3.67596 -2.68701,-6.77881c1.00092,-0.2688 2.02081,-0.58881 3.04315,-0.96301c1.90948,1.07452 3.85065,2.09644 5.82013,3.06787c0.27197,1.04626 0.58582,2.05975 0.93115,3.02948c-3.08355,0.99206 -5.77209,1.45642 -7.10742,1.64447zm9.68335,-2.57605c-0.06146,-0.1723 -0.12311,-0.34387 -0.18256,-0.51886c0.22791,0.10388 0.45282,0.21356 0.68158,0.31616c-0.16693,0.07007 -0.3327,0.13587 -0.49902,0.2027zm4.49689,8.95508c-0.74548,-1.12231 -2.18176,-3.43927 -3.4856,-6.4082c0.94739,-0.38202 1.90643,-0.81555 2.86255,-1.30157c2.0401,0.84039 4.10541,1.62915 6.19708,2.35773c0.39319,0.99646 0.82898,1.95013 1.2843,2.86292c-2.94183,1.35655 -5.55541,2.1414 -6.85833,2.48912zm9.31366,-3.7301c-0.07794,-0.1557 -0.15973,-0.30292 -0.23615,-0.46124c0.23047,0.07251 0.46423,0.13531 0.69519,0.20642c-0.1532,0.08746 -0.30591,0.17053 -0.45904,0.25482zm5.53204,8.35363c-0.87219,-1.0246 -2.57037,-3.15039 -4.22394,-5.94507c0.8927,-0.49255 1.79065,-1.03748 2.67938,-1.63397c3.55273,0.97614 7.15015,1.79742 10.77069,2.44312c-3.73022,2.77282 -7.56909,4.47052 -9.22613,5.13592zm150.91382,-107.52868c-0.35303,-0.39471 -0.90179,-0.5498 -1.40991,-0.39795c-0.50708,0.15192 -0.88153,0.58197 -0.96173,1.1051c-1.06445,6.92456 -2.75677,13.79248 -5.03113,20.41437c-11.84656,34.54279 -39.54919,62.2251 -74.10364,74.05029c-6.63043,2.27112 -13.50262,3.95709 -20.42395,5.0108c-0.52313,0.07916 -0.95319,0.45355 -1.1051,0.96063c-0.15191,0.50708 0.00214,1.05695 0.39581,1.41101c5.89441,5.29962 13.00836,7.78363 13.30896,7.88629c0.14551,0.05029 0.29633,0.07489 0.44501,0.07489c0.37018,0 0.73279,-0.15082 0.99597,-0.42896c0.15442,-0.16382 2.79065,-2.99109 5.28674,-7.25385c4.48315,2.09479 8.24854,2.92206 8.4704,2.96942c0.09521,0.02032 0.19043,0.02997 0.28564,0.02997c0.42896,0 0.84082,-0.20221 1.10187,-0.55627c0.13464,-0.18201 2.40552,-3.29761 4.37384,-7.83826c4.70288,1.53967 8.54041,1.90747 8.76605,1.9278c0.04065,0.00323 0.0813,0.00537 0.12195,0.00537c0.48999,0 0.94678,-0.26318 1.19177,-0.69427c0.11127,-0.19788 1.99042,-3.56409 3.3974,-8.30829c3.90601,0.77338 7.16595,0.86273 8.40637,0.86273c0.30164,0 0.48456,-0.00427 0.52844,-0.00647c0.53705,-0.01599 1.0152,-0.34552 1.22168,-0.84186c0.08722,-0.20911 1.5459,-3.7757 2.37048,-8.65375c1.20929,0.09082 2.35242,0.12659 3.3902,0.12659c3.19965,0 5.41406,-0.32953 5.58313,-0.35516c0.53162,-0.0813 0.96594,-0.46643 1.11041,-0.98315c0.06165,-0.21808 1.08026,-3.9353 1.31152,-8.87756c4.94452,-0.22717 8.6626,-1.24573 8.88116,-1.30658c0.51776,-0.14545 0.90289,-0.57977 0.98419,-1.11041c0.03461,-0.22418 0.59808,-4.03851 0.23145,-8.97375c4.87872,-0.82153 8.44916,-2.27734 8.65833,-2.36469c0.49634,-0.20538 0.82581,-0.68359 0.84296,-1.22058c0.00745,-0.22638 0.10754,-4.08002 -0.85077,-8.93494c4.74554,-1.40332 8.11346,-3.27997 8.31128,-3.39203c0.46753,-0.26422 0.73816,-0.77771 0.69,-1.31366c-0.02032,-0.22565 -0.38531,-4.0636 -1.92157,-8.76733c4.54181,-1.96478 7.65857,-4.23364 7.84058,-4.36835c0.43329,-0.31879 0.63971,-0.86115 0.5274,-1.38641c-0.04742,-0.22186 -0.87231,-3.98901 -2.96478,-8.47443c4.27222,-2.49701 7.09271,-5.12256 7.25665,-5.27637c0.3905,-0.36908 0.53064,-0.93176 0.35626,-1.43988c-0.10271,-0.30059 -2.57493,-7.41564 -7.87132,-13.31005zm-89.28467,107.52972c-1.65497,-0.66321 -5.49005,-2.35669 -9.22675,-5.13696c3.62122,-0.64624 7.21973,-1.46753 10.77319,-2.4436c0.89008,0.59735 1.78931,1.14307 2.68329,1.63623c-1.65112,2.78759 -3.35534,4.91851 -4.22973,5.94433zm5.53766,-8.35272c-0.15442,-0.08502 -0.30853,-0.16895 -0.4632,-0.2572c0.23297,-0.07166 0.46869,-0.13507 0.70117,-0.20813c-0.0769,0.1596 -0.15948,0.30841 -0.23797,0.46533zm9.30957,3.72815c-1.30334,-0.34766 -3.91608,-1.13232 -6.85693,-2.48853c0.45526,-0.91357 0.8902,-1.86755 1.28131,-2.86353c2.09247,-0.7287 4.15845,-1.51764 6.19922,-2.35828c0.95557,0.48572 1.91412,0.91925 2.86102,1.30103c-1.30322,2.96503 -2.73944,5.28467 -3.48462,6.40931zm4.49646,-8.95441c-0.16638,-0.06689 -0.33221,-0.133 -0.49921,-0.20319c0.229,-0.1026 0.45416,-0.2124 0.68243,-0.31647c-0.05956,0.17542 -0.12157,0.34705 -0.18322,0.51966zm9.68329,2.57648c-1.33441,-0.18695 -4.02039,-0.64911 -7.10626,-1.64307c0.34589,-0.97083 0.66034,-1.98529 0.93274,-3.03284c1.96912,-0.97119 3.90997,-1.99268 5.81915,-3.06689c1.02185,0.3739 2.04126,0.69385 3.04169,0.96246c-0.93634,3.10004 -2.08277,5.57514 -2.68732,6.78034zm3.38592,-9.43305c-0.19086,-0.05109 -0.38135,-0.10223 -0.57336,-0.1571c0.23505,-0.14185 0.46814,-0.2865 0.70221,-0.42987c-0.04114,0.19763 -0.08484,0.39221 -0.12885,0.58697zm9.92408,1.39161c-1.34906,-0.02643 -4.07361,-0.16364 -7.25342,-0.77686c0.22955,-1.01971 0.42163,-2.08038 0.56635,-3.16925c1.81812,-1.18988 3.60266,-2.42725 5.35303,-3.71045c1.07507,0.25354 2.14258,0.45477 3.18304,0.60327c-0.55579,3.18897 -1.39484,5.78351 -1.849,7.05329zm2.22308,-9.77137c-0.21094,-0.02991 -0.42188,-0.06091 -0.63477,-0.09503c0.23126,-0.18042 0.46478,-0.35797 0.6947,-0.53998c-0.01788,0.2135 -0.03851,0.42432 -0.05993,0.63501zm10.01929,0.18622c-1.3421,0.13721 -4.06073,0.33051 -7.29419,0.10352c0.10596,-1.04913 0.16882,-2.13501 0.18042,-3.24335c1.6582,-1.39465 3.27698,-2.83459 4.85901,-4.31396c1.10358,0.12305 2.1861,0.19189 3.24164,0.21387c-0.16675,3.23986 -0.68848,5.92297 -0.98688,7.23992zm0.37903,-9.98749c0.21185,-0.21014 0.42285,-0.42102 0.63318,-0.63275c0.0083,0.21844 0.01343,0.43457 0.01764,0.65057c-0.21607,-0.00427 -0.43232,-0.00945 -0.65082,-0.01782zm10.3468,-11.65777c0.03406,0.21362 0.06476,0.42529 0.0946,0.63696c-0.2113,0.02124 -0.42273,0.04181 -0.63672,0.05945c0.18274,-0.23053 0.36103,-0.4646 0.54212,-0.69641zm0.2735,10.65344c-1.31573,0.2973 -3.99512,0.81464 -7.229,0.97992c-0.02124,-1.05737 -0.0899,-2.14594 -0.21259,-3.25098c1.47577,-1.57635 2.91278,-3.18909 4.30444,-4.84119c1.10956,-0.0108 2.19427,-0.07709 3.24457,-0.1825c0.22363,3.23133 0.02972,5.95277 -0.10742,7.29475zm20.05444,-49.4906c0.08728,0.15338 0.17035,0.30621 0.25458,0.45941c-0.15576,0.07788 -0.30322,0.15961 -0.46167,0.23596c0.07269,-0.23047 0.1358,-0.46435 0.20709,-0.69537zm-5.18231,13.76855c0.0697,0.16626 0.13513,0.33154 0.20166,0.49731c-0.17181,0.06122 -0.34271,0.1228 -0.51721,0.18195c0.10375,-0.22723 0.21319,-0.45135 0.31555,-0.67926zm-6.81934,12.98902c0.05475,0.19196 0.10571,0.38232 0.15662,0.57306c-0.19458,0.0437 -0.38898,0.0871 -0.5863,0.12799c0.14324,-0.23365 0.28796,-0.46643 0.42968,-0.70105zm-5.51605,12.34509c-0.14783,-1.04175 -0.34576,-2.10876 -0.59888,-3.18542c1.2851,-1.75006 2.52423,-3.53448 3.71588,-5.3526c1.0885,-0.14386 2.14886,-0.3349 3.1684,-0.56354c0.61127,3.18115 0.7464,5.90601 0.77155,7.25458c-1.26722,0.45355 -3.86609,1.29309 -7.05695,1.84698zm8.32361,-12.46686c-0.26788,-1.00006 -0.58698,-2.01849 -0.96002,-3.0401c1.0769,-1.91058 2.10101,-3.85278 3.07458,-5.82349c1.04626,-0.27112 2.05957,-0.58423 3.0293,-0.92871c0.9903,3.08441 1.453,5.77362 1.6405,7.10962c-1.20508,0.60389 -3.67938,1.74866 -6.78436,2.68268zm13.17297,-16.86029c-1.12524,0.74445 -3.4458,2.17908 -6.41174,3.47998c-0.3811,-0.9472 -0.81384,-1.90607 -1.29889,-2.862c0.84174,-2.03961 1.6319,-4.10449 2.36182,-6.19574c0.99664,-0.39258 1.95056,-0.82776 2.86365,-1.28259c1.35467,2.94275 2.13805,5.5567 2.48516,6.86035zm-1.31561,-10.62201c-0.49176,-0.8927 -1.03583,-1.79065 -1.63141,-2.67938c0.97852,-3.54962 1.80371,-7.14594 2.45386,-10.76624c2.76965,3.73029 4.46204,7.56964 5.12524,9.22675c-1.02533,0.87134 -3.15253,2.56775 -5.94769,4.21887z" paint-order="stroke" id="svg_14"/>
    </g>
   </g>
  </g>
 </g>

</svg>